<mxfile host="app.diagrams.net" modified="2023-04-24T19:06:32.509Z" agent="Mozilla/5.0 (Macintosh; Intel Mac OS X 10_15_7) AppleWebKit/605.1.15 (KHTML, like Gecko) Version/16.4 Safari/605.1.15" etag="nvvpYAG9nu1LyyL2FYW7" version="21.2.1" type="github">
  <diagram name="Strona-1" id="4_b_r0FPneEdvxQF47Fr">
    <mxGraphModel dx="954" dy="559" grid="1" gridSize="10" guides="1" tooltips="1" connect="1" arrows="1" fold="1" page="1" pageScale="1" pageWidth="827" pageHeight="1169" math="0" shadow="0">
      <root>
        <mxCell id="0" />
        <mxCell id="1" parent="0" />
        <mxCell id="xjDF9pEwEW9eb6jhkBWc-1" value="Actor" style="shape=umlActor;verticalLabelPosition=bottom;verticalAlign=top;html=1;" parent="1" vertex="1">
          <mxGeometry x="399" y="280" width="30" height="60" as="geometry" />
        </mxCell>
        <mxCell id="xjDF9pEwEW9eb6jhkBWc-2" value="Actor" style="shape=umlActor;verticalLabelPosition=bottom;verticalAlign=top;html=1;" parent="1" vertex="1">
          <mxGeometry x="470" y="220" width="30" height="60" as="geometry" />
        </mxCell>
        <mxCell id="xjDF9pEwEW9eb6jhkBWc-3" value="Diagram Heading" style="shape=umlFrame;whiteSpace=wrap;html=1;pointerEvents=0;recursiveResize=0;container=1;collapsible=0;width=160;" parent="1" vertex="1">
          <mxGeometry x="80" y="50" width="610" height="440" as="geometry" />
        </mxCell>
      </root>
    </mxGraphModel>
  </diagram>
</mxfile>
